<svg preserveAspectRatio="none" width="100%" height="100%" overflow="visible" style="display: block;" viewBox="0 0 50.9671 55.8745" fill="none" xmlns="http://www.w3.org/2000/svg">
<path id="Vector" fill-rule="evenodd" clip-rule="evenodd" d="M28.8688 0.351345C28.6563 0.595345 28.4316 0.95936 28.3693 1.16061L28.2566 1.52636L23.6493 1.55285L19.0421 1.57934L16.5473 2.1506C12.0778 3.1741 9.14958 4.4471 5.71133 6.86135C2.62633 9.02735 -0.380171 12.2364 0.0393295 12.9154C0.125829 13.0554 0.59209 13.1699 1.07534 13.1699C2.84259 13.1699 6.95259 14.8291 9.14584 16.4281L10.2496 17.2328L12.6458 17.3021C15.2708 17.3784 17.2068 17.7581 21.1046 18.9621L23.6671 19.7536L23.6668 20.1493C23.6666 20.3668 23.3981 21.6699 23.0698 23.0449C22.7418 24.4199 21.6068 29.5386 20.5478 34.4199C19.4888 39.3011 18.5109 43.5296 18.3744 43.8164C18.2381 44.1034 18.1553 44.4971 18.1908 44.6914C18.2263 44.8859 17.9878 46.1979 17.6611 47.6074L17.0666 50.1699H16.0841C13.0936 50.1699 6.97058 51.6986 3.66708 53.2704L2.29208 53.9243L3.4938 53.7999C4.15505 53.7314 5.7863 53.3416 7.1188 52.9336C8.45155 52.5259 10.4641 52.0218 11.5911 51.8136C13.9121 51.3851 19.6671 51.0011 19.6671 51.2749C19.6671 51.3739 19.3236 51.9541 18.9036 52.5644C18.4838 53.1746 18.209 53.7856 18.2933 53.9219C18.655 54.5071 19.4098 54.0756 20.5156 52.6521L21.6941 51.1344L23.9931 51.2981C26.1406 51.4511 31.4621 52.1316 31.6016 52.2711C31.6361 52.3054 31.2113 52.9403 30.6578 53.6821C29.619 55.0743 29.488 55.7294 30.2203 55.8704C30.508 55.9259 30.9848 55.4271 31.7173 54.3039L32.7921 52.6561L33.6671 52.8089C34.1483 52.8929 34.8516 53.0226 35.2296 53.0971L35.9171 53.2324V52.8509C35.9171 52.6356 35.4371 52.2709 34.8148 52.0134L33.7123 51.5576L34.0456 50.9261C34.2291 50.5789 34.5426 50.0764 34.7426 49.8091L35.1058 49.3234L37.9491 50.9079C39.5126 51.7796 41.3869 52.8836 42.1139 53.3616L43.4356 54.2306L43.8836 53.8253C44.1298 53.6023 44.7446 53.4199 45.2494 53.4199H46.1671V53.0449V52.6699H44.8226C43.3291 52.6699 43.0578 52.4684 42.8031 51.1699C42.7086 50.6886 42.1213 48.4801 41.4978 46.2621L40.3643 42.2291L41.8911 39.9584C44.3561 36.2926 46.4171 32.8506 46.4171 32.3999C46.4171 32.1696 46.2603 31.8509 46.0686 31.6919L45.7201 31.4026L45.3498 31.7726L44.9798 32.1428L40.2608 31.7429L35.5421 31.3429L35.2443 30.9438L34.9463 30.5449L34.4943 30.8219C34.2456 30.9744 32.0379 33.9556 29.5879 37.4469C27.1381 40.9384 25.0386 43.8919 24.9226 44.0104C24.8063 44.1289 23.7913 44.1444 22.6673 44.0449L20.6233 43.8639L20.7731 43.3293C21.0408 42.3728 24.105 28.4009 24.9338 24.3574L25.7408 20.4199H26.0873C26.2778 20.4199 27.0171 20.7156 27.7301 21.0769L29.0266 21.7339L30.8281 21.5976C32.8446 21.4451 37.1386 21.7553 39.0421 22.1911C39.7296 22.3486 40.8568 22.7771 41.5471 23.1434L42.8023 23.8096L44.1721 23.3869C46.2601 22.7429 48.4548 22.5608 49.5143 22.9438L50.4168 23.2701L50.6919 22.9951L50.9671 22.7198L50.5431 21.2616C49.0398 16.0906 44.6218 10.1714 39.6671 6.69061C37.4336 5.12136 33.6908 3.20461 31.3641 2.43811L29.6861 1.88537L29.7391 0.992366C29.7996 -0.0276335 29.434 -0.297155 28.8688 0.351345ZM20.5421 2.69287C18.2706 2.96312 15.3256 3.72786 12.6671 4.73761L10.5421 5.54486L12.1671 5.68911L13.7921 5.83361L12.3546 5.92034C11.5641 5.96834 10.6073 6.02711 10.2286 6.05111C9.84985 6.07511 9.0906 6.32684 8.5411 6.61059L7.54208 7.12609L9.66708 6.98935C10.8358 6.9141 11.7181 6.93237 11.6276 7.03012C11.3808 7.29587 10.7296 7.3796 8.74355 7.4006L6.94509 7.41986L6.28957 7.98236L5.6343 8.54486L7.71334 8.5036L9.79208 8.46237L7.23281 8.75735L4.67355 9.05236L4.14455 9.58111L3.61581 10.1101L5.85909 9.98211C7.09309 9.91186 8.76385 9.95137 9.57235 10.0704L11.0421 10.2863L7.11306 10.4156L3.18435 10.5449L2.80959 10.9199L2.43484 11.2949L6.61355 11.3021L10.7921 11.3094L12.1671 11.7111C12.9233 11.9321 13.7108 12.1791 13.9171 12.2601L14.2921 12.4076L15.1536 10.9024C16.9418 7.77712 20.0486 5.01486 23.7041 3.30011L25.5421 2.43786L23.9171 2.46136C23.0233 2.47411 21.5046 2.57837 20.5421 2.69287ZM25.2503 3.63736C24.1273 4.02811 22.6809 4.65737 22.0359 5.03537C20.3901 5.99987 17.3551 8.95062 16.1421 10.7656L15.1198 12.2949L19.3311 12.4446L23.5421 12.5941L26.5421 13.2756C29.9468 14.0491 33.3451 15.1501 35.5331 16.1886C36.3531 16.5778 37.0738 16.8464 37.1351 16.7854C37.4121 16.5081 36.3091 12.1534 35.5401 10.4889C34.2706 7.74111 31.9476 4.85061 31.1993 5.08786L30.7921 5.2171L31.1051 4.99087L31.4181 4.76461L30.7301 4.2561C29.6506 3.45785 28.4941 2.91959 27.8671 2.92309C27.5508 2.92509 26.3733 3.24636 25.2503 3.63736ZM33.0536 5.22836C34.4556 6.77961 35.6306 8.55986 36.3973 10.2949C37.0521 11.7766 37.9128 15.2113 37.9153 16.3526L37.9171 17.1604L38.6046 17.3134C42.9958 18.2906 45.8898 19.3181 48.1613 20.7061C48.7768 21.0821 49.3138 21.3566 49.3546 21.3156C49.8266 20.8436 46.9478 18.8896 44.2921 17.8791L42.7921 17.3083L43.3291 17.2251C43.8923 17.1376 46.4676 18.2476 47.8546 19.1754C48.3013 19.4744 48.6671 19.6016 48.6671 19.4584C48.6671 18.8839 47.4338 17.8776 45.4171 16.8066C44.2483 16.1861 43.4351 15.6763 43.6101 15.6741C43.8576 15.6708 46.0346 16.6224 47.4796 17.3651C47.5826 17.4181 47.6671 17.3484 47.6671 17.2099C47.6671 16.7226 46.2181 15.5354 44.5768 14.6779C43.6638 14.2009 42.9171 13.7284 42.9171 13.6281C42.9171 13.4001 44.2956 13.9674 45.5723 14.7209L46.5363 15.2896L46.0038 14.5424C45.2178 13.4396 44.6986 13.0578 43.1046 12.4111C42.3141 12.0903 41.6671 11.7388 41.6671 11.6301C41.6671 11.4123 42.4791 11.6844 43.7313 12.3211L44.5421 12.7334L43.9171 12.0449C43.5733 11.6661 42.5728 11.0304 41.6936 10.6324C39.8476 9.79635 39.7416 9.40336 41.5691 10.1709L42.7921 10.6844L41.9416 9.98962C38.8196 7.43937 35.1194 5.14986 32.5279 4.16436L31.8635 3.91186L33.0536 5.22836ZM15.5421 4.41986C15.6271 4.55736 15.8023 4.66986 15.9318 4.66986C16.0613 4.66986 16.1671 4.55736 16.1671 4.41986C16.1671 4.28236 15.9916 4.16986 15.7773 4.16986C15.5631 4.16986 15.4571 4.28236 15.5421 4.41986ZM24.5446 4.42385C24.6311 4.5636 24.8063 4.61336 24.9343 4.53411C25.2811 4.31986 25.2166 4.16986 24.7773 4.16986C24.5631 4.16986 24.4583 4.2841 24.5446 4.42385ZM12.9171 5.01562C12.9171 5.06837 13.1983 5.16536 13.5421 5.23111C13.8858 5.29686 14.1671 5.2536 14.1671 5.1351C14.1671 5.01685 13.8858 4.91986 13.5421 4.91986C13.1983 4.91986 12.9171 4.96312 12.9171 5.01562ZM22.7921 5.16986C22.6143 5.45736 23.0193 5.45736 23.9171 5.16986L24.5421 4.9696L23.7443 4.94485C23.3056 4.9311 22.8771 5.03236 22.7921 5.16986ZM21.5421 6.16986C21.3633 6.45911 22.0141 6.45911 22.9171 6.16986L23.5421 5.9696L22.6193 5.94485C22.1118 5.9311 21.6271 6.03236 21.5421 6.16986ZM31.5421 6.16986C31.6271 6.30736 31.8091 6.41986 31.9466 6.41986C32.0841 6.41986 32.1271 6.30736 32.0421 6.16986C31.9571 6.03236 31.7751 5.91986 31.6376 5.91986C31.5001 5.91986 31.4571 6.03236 31.5421 6.16986ZM32.5273 7.30285C32.7943 7.5046 33.1318 7.66636 33.2773 7.66186C33.4231 7.65761 33.3236 7.48886 33.0568 7.28686C32.7898 7.08511 32.4523 6.92335 32.3068 6.92785C32.1611 6.9321 32.2606 7.10085 32.5273 7.30285ZM19.9171 7.66986C19.9171 7.80736 20.4863 7.91986 21.1818 7.91986C21.9613 7.91986 22.3873 7.82386 22.2921 7.66986C22.2071 7.53236 21.6381 7.41986 21.0273 7.41986C20.4166 7.41986 19.9171 7.53236 19.9171 7.66986ZM33.1671 8.54486C33.9851 9.01236 34.4283 9.00686 33.8068 8.53686C33.5398 8.33511 33.1461 8.17387 32.9318 8.17862C32.6821 8.18437 32.7666 8.31586 33.1671 8.54486ZM18.2921 9.41986C18.1938 9.57886 18.8033 9.6591 19.9648 9.64035L21.7921 9.61059L21.0421 9.41986C19.9251 9.13561 18.4678 9.13561 18.2921 9.41986ZM32.7318 9.4411C33.6546 9.9786 34.9171 10.4171 34.9171 10.2003C34.9171 10.0758 34.4648 9.79311 33.9121 9.57211C32.7961 9.12561 32.0473 9.0426 32.7318 9.4411ZM33.6671 11.1699C35.1573 11.9571 35.4171 12.0359 35.4171 11.7006C35.4171 11.4531 33.1263 10.4136 32.6208 10.4316C32.4401 10.4381 32.9108 10.7704 33.6671 11.1699ZM16.9171 11.1699C16.9171 11.3186 17.7516 11.4078 18.9796 11.3903L21.0421 11.3606L20.2921 11.1699C19.1678 10.8839 16.9171 10.8839 16.9171 11.1699ZM21.4171 11.4434C21.4171 11.5679 21.6421 11.6699 21.9171 11.6699C22.1921 11.6699 22.4171 11.6266 22.4171 11.5741C22.4171 11.5213 22.1921 11.4193 21.9171 11.3473C21.6421 11.2756 21.4171 11.3186 21.4171 11.4434ZM31.7756 11.8931C31.8696 12.0453 32.0556 12.1699 32.1888 12.1699C32.3221 12.1699 33.2276 12.5636 34.2013 13.0449C36.1471 14.0064 36.1671 14.0131 36.1671 13.7068C36.1671 13.5896 35.4078 13.1503 34.4796 12.7303C32.3636 11.7731 31.5448 11.5196 31.7756 11.8931ZM8.16708 13.1731C10.2851 14.3526 10.6671 14.6278 10.6671 14.9751C10.6671 15.1091 10.3013 14.9784 9.85458 14.6841C9.40783 14.3901 8.28555 13.7604 7.3608 13.2846L5.67959 12.4199L4.4858 12.4381L3.29208 12.4564L4.54208 12.9019C6.13008 13.4679 8.25331 14.5391 9.55331 15.4304L10.5648 16.1233L11.7688 14.7579C12.4308 14.0066 12.9321 13.3649 12.8823 13.3316C12.5086 13.0811 11.3308 12.6728 11.2408 12.7626C11.1796 12.8241 11.3628 12.9483 11.6483 13.0388C11.9336 13.1293 12.1671 13.3084 12.1671 13.4366C12.1671 13.8064 11.7863 13.7106 11.0961 13.1676C10.7448 12.8913 10.0828 12.6041 9.62484 12.5291L8.79208 12.3926L9.78457 12.9113C10.9306 13.5101 11.3211 13.8494 11.1086 14.0616C11.0261 14.1441 10.3128 13.7986 9.52334 13.2936C8.73409 12.7889 7.68409 12.3201 7.19009 12.2523L6.29208 12.1291L8.16708 13.1731ZM31.1671 13.2244C31.5108 13.3731 32.7351 13.9321 33.8876 14.4661C36.0978 15.4906 36.9778 15.6074 35.1288 14.6309C33.2333 13.6299 31.5586 12.9396 31.0421 12.9469L30.5421 12.9536L31.1671 13.2244ZM12.5311 14.9574C11.9183 15.6126 11.4171 16.2066 11.4171 16.2779C11.4171 16.3491 11.7396 16.3428 12.1336 16.2641C13.6396 15.9628 20.8281 17.4009 23.4643 18.5306L23.8866 18.7116L24.1483 17.7396C24.6148 16.0066 24.7388 15.1464 24.5131 15.2051C24.3916 15.2369 23.3358 14.9361 22.1671 14.5369L20.0421 13.8106L16.8436 13.7886L13.6451 13.7666L12.5311 14.9574ZM21.9171 13.9144C22.2608 14.0274 23.0763 14.2841 23.7296 14.4853L24.9171 14.8513V14.5363C24.9171 14.3451 24.2948 14.1129 23.3341 13.9456C21.5198 13.6296 21.0153 13.6186 21.9171 13.9144ZM15.0275 14.1934C14.9505 14.3179 15.1756 14.4199 15.5273 14.4199C16.2933 14.4199 16.3553 14.2774 15.6673 14.0976C15.3926 14.0256 15.1045 14.0689 15.0275 14.1934ZM16.6951 14.2814C16.7563 14.3426 17.7033 14.5761 18.7993 14.8004C19.8953 15.0246 21.5561 15.4623 22.4898 15.7733C23.4238 16.0843 24.2401 16.2539 24.3041 16.1504C24.4536 15.9086 20.9906 14.7746 19.0586 14.4326C17.5018 14.1569 16.5071 14.0931 16.6951 14.2814ZM26.9171 14.8636C26.9171 15.1119 28.2001 15.4666 28.3963 15.2729C28.5623 15.1086 28.3408 14.9729 27.6041 14.7881C27.2006 14.6869 26.9171 14.7181 26.9171 14.8636ZM17.9958 16.0348C19.6203 16.3678 21.5118 16.8273 22.1993 17.0556C23.4548 17.4726 24.1081 17.4194 23.2511 16.9696C22.3451 16.4946 18.5083 15.6438 16.7921 15.5376L15.0421 15.4291L17.9958 16.0348ZM29.2608 16.2011C29.3468 16.6309 29.4171 17.8031 29.4171 18.8061V20.6298L31.7296 20.4998C34.3786 20.3508 38.0268 20.8591 40.6683 21.7451L42.3458 22.3079L42.1038 21.4264C41.6831 19.8934 41.2091 19.2219 40.3588 18.9549C39.2318 18.6009 38.5883 18.5284 38.2826 18.7206C38.1401 18.8104 36.9588 18.7239 35.6576 18.5286C34.3566 18.3331 32.5046 18.1624 31.5421 18.1491L29.7921 18.1248L30.6671 17.8739C31.2573 17.7044 32.3531 17.7079 34.0333 17.8844C35.4033 18.0281 36.5738 18.0963 36.6341 18.0361C36.9778 17.6923 34.4863 17.0946 32.2296 16.9791C29.3526 16.8319 28.7636 16.4356 31.3546 16.3903L33.0421 16.3606L32.2921 16.1699C31.8796 16.0649 31.1203 15.9656 30.6046 15.9494C30.0891 15.9331 29.6671 15.8074 29.6671 15.6699C29.6671 15.5324 29.5406 15.4199 29.3858 15.4199C29.2041 15.4199 29.1598 15.6964 29.2608 16.2011ZM26.6671 15.9844C26.6671 16.1989 26.9861 16.4211 27.4171 16.5074C27.8296 16.5899 28.1671 16.7804 28.1671 16.9304C28.1671 17.0976 27.9488 17.1374 27.6046 17.0329C27.2951 16.9391 26.9396 16.8471 26.8144 16.8286C26.5494 16.7894 26.2279 17.7556 26.1921 18.6984L26.1671 19.3519L27.3073 19.7873C27.9343 20.0268 28.5056 20.1649 28.5763 20.0939C28.8288 19.8414 28.3621 16.0034 28.0758 15.9796C27.9198 15.9666 27.5391 15.8786 27.2296 15.7839L26.6671 15.6116V15.9844ZM23.8303 23.5449C22.8888 27.8074 21.5701 33.8261 20.8996 36.9199C20.2293 40.0136 19.6193 42.7981 19.5441 43.1074C19.4691 43.4166 19.5111 43.6699 19.6378 43.6699C19.7646 43.6699 20.1578 42.4044 20.5116 40.8574C22.7428 31.1034 23.2771 28.6666 24.4166 23.0449C25.1133 19.6074 25.6516 16.5699 25.6126 16.2949C25.5738 16.0199 24.7718 19.2824 23.8303 23.5449ZM27.2921 17.9199C27.3771 18.0574 27.6368 18.1681 27.8693 18.1661L28.2921 18.1621L27.9171 17.9199C27.4276 17.6034 27.0966 17.6034 27.2921 17.9199ZM27.5238 19.3001C28.0376 19.6889 28.3246 19.6271 28.0523 19.1866C27.9618 19.0399 27.6973 18.9234 27.4648 18.9279L27.0421 18.9358L27.5238 19.3001ZM39.5421 19.5481C40.5923 20.1983 41.1671 20.3331 41.1671 19.9286C41.1671 19.6049 40.4811 19.2739 39.4171 19.0846L38.5421 18.9286L39.5421 19.5481ZM30.0633 19.3854L29.8876 19.6699H32.2446C35.0951 19.6699 38.4993 20.2311 40.4658 21.0256C41.2641 21.3479 41.9171 21.5149 41.9171 21.3966C41.9171 20.5294 37.5641 19.4294 33.3906 19.2424L30.2391 19.1009L30.0633 19.3854ZM43.3546 20.3521C42.5781 20.4661 42.5576 20.5313 42.9488 21.6533L43.2306 22.4616L43.7613 22.3173C44.0533 22.2381 45.0116 22.0456 45.8913 21.8894L47.4903 21.6059L47.0489 21.3586C46.6311 21.1249 45.3833 21.2058 43.8546 21.5661C43.4283 21.6666 43.1671 21.6254 43.1671 21.4576C43.1671 21.3089 43.7428 21.1106 44.4466 21.0174C45.2128 20.9156 45.5888 20.7741 45.3841 20.6641C44.8156 20.3586 44.0801 20.2456 43.3546 20.3521ZM34.8036 32.7324C34.7498 32.9044 34.5126 33.6636 34.2766 34.4199C33.6886 36.3026 32.3241 38.9914 31.0316 40.8134C29.9571 42.3284 28.9376 43.2576 27.5691 43.9698L26.8461 44.3461L28.0691 44.5136C28.7418 44.6059 30.5118 45.1171 32.0028 45.6499L34.7136 46.6186L35.5028 45.5009C40.6048 38.2754 44.0826 33.2836 44.0481 33.2351C44.0168 33.1906 35.4441 32.4199 34.9813 32.4199C34.9373 32.4199 34.8573 32.5606 34.8036 32.7324ZM31.4513 37.6181C30.4698 39.1023 29.6716 40.5366 29.6773 40.8056L29.6873 41.2949L30.4188 40.4394C31.3703 39.3266 33.6866 34.9199 33.3201 34.9199C33.2736 34.9199 32.4326 36.1341 31.4513 37.6181ZM39.1671 41.9199C38.6068 42.7449 38.2046 43.4199 38.2733 43.4199C38.3421 43.4199 38.8568 42.7449 39.4171 41.9199C39.9773 41.0949 40.3796 40.4199 40.3108 40.4199C40.2421 40.4199 39.7273 41.0949 39.1671 41.9199ZM27.9716 42.3046C27.5203 42.9181 27.2071 43.4199 27.2756 43.4199C27.5858 43.4199 29.1671 41.8309 29.1671 41.5189C29.1671 40.9214 28.8228 41.1476 27.9716 42.3046ZM37.6351 44.1074L37.2921 44.5449L37.7296 44.2019C37.9703 44.0131 38.1671 43.8161 38.1671 43.7644C38.1671 43.5586 37.9618 43.6909 37.6351 44.1074ZM37.7178 45.7653C36.8648 46.9171 36.1671 47.9226 36.1671 48.0001C36.1671 48.2019 40.9381 50.9824 41.0653 50.8549C41.1958 50.7246 39.6496 44.1186 39.4278 43.8581C39.3403 43.7556 38.5708 44.6138 37.7178 45.7653ZM20.6203 44.8406C20.8006 44.9129 21.0163 44.9039 21.0993 44.8209C21.1823 44.7379 21.0348 44.6789 20.7713 44.6896C20.4801 44.7016 20.4208 44.7609 20.6203 44.8406ZM22.4586 45.3186C22.8423 45.7023 24.4666 45.9874 29.9171 46.6271C31.0858 46.7644 32.0821 46.8371 32.1311 46.7886C32.3771 46.5444 28.4206 45.6311 25.6746 45.2978C21.8506 44.8341 21.9736 44.8333 22.4586 45.3186ZM18.5621 47.4066C18.1131 49.3809 18.0586 50.1353 18.3903 49.7823C18.5713 49.5898 19.4171 46.3161 19.4171 45.8081C19.4171 45.7321 19.3136 45.6699 19.1871 45.6699C19.0606 45.6699 18.7793 46.4514 18.5621 47.4066ZM19.939 47.6074C19.7698 48.3979 19.58 49.2279 19.5173 49.4514C19.4448 49.7094 19.5911 49.9071 19.9181 49.9926L20.4331 50.1271L21.4251 48.8134C21.9706 48.0906 22.4171 47.3813 22.4171 47.2368C22.4171 47.0333 20.7253 46.1699 20.3268 46.1699C20.2828 46.1699 20.1083 46.8169 19.939 47.6074ZM33.0568 47.2869C33.3236 47.4889 33.7108 47.6536 33.9171 47.6531C34.1346 47.6526 34.0296 47.5021 33.6671 47.2949C32.8453 46.8251 32.4393 46.8199 33.0568 47.2869ZM26.6671 47.9571C27.4233 48.3841 28.9111 49.2749 29.9734 49.9364L31.9046 51.1396L32.3753 50.4671C32.6343 50.0973 32.9761 49.5464 33.1348 49.2429L33.4233 48.6909L32.9378 48.4308C32.5526 48.2248 26.1738 47.1529 25.4658 47.1754C25.3703 47.1784 25.9108 47.5301 26.6671 47.9571ZM23.2313 49.0294L22.4638 50.1181L23.7531 50.2644C24.4621 50.3446 25.7733 50.4791 26.6671 50.5631L28.2921 50.7156L26.4171 49.4939C25.3858 48.8219 24.4198 48.1973 24.2703 48.1063C24.1181 48.0136 23.6611 48.4199 23.2313 49.0294Z" fill="var(--fill-0, black)"/>
</svg>
