<svg preserveAspectRatio="none" width="100%" height="100%" overflow="visible" style="display: block;" viewBox="0 0 75.008 63.1488" fill="none" xmlns="http://www.w3.org/2000/svg">
<g id="Frame 28">
<g id="Vector">
<path d="M37.2875 16.1006C37.078 12.7177 37.0777 3.84229 37.287 1.54703C37.379 0.537615 37.543 -0.122788 37.6667 0.0191609C37.9245 0.314815 38.5198 17.593 38.295 18.2643C38.2103 18.5181 37.9853 18.7257 37.7953 18.7257H37.4497L37.2875 16.1006Z" fill="var(--fill-0, #FF0000)"/>
<path d="M46.281 20.5036C46.0823 20.1348 52.199 4.03127 52.9128 3.04509C53.7238 1.92412 53.1857 3.79154 50.3817 11.8321C47.5972 19.8168 46.809 21.4838 46.281 20.5036Z" fill="var(--fill-0, #FF0000)"/>
<path d="M28.8802 20.8764C28.308 20.8764 22.596 5.27355 22.6378 3.82424C22.669 2.73224 29.133 18.7991 29.2095 20.1595C29.2358 20.6221 29.1187 20.8764 28.8802 20.8764Z" fill="var(--fill-0, #FF0000)"/>
<path d="M42.125 18.7403C42.125 18.0888 43.0363 12.5003 43.4075 10.8749L43.6615 9.76312L43.927 10.0677L44.1927 10.3725L43.7817 13.3987C43.1475 18.0704 42.8762 19.2992 42.4792 19.2992C42.2845 19.2992 42.125 19.0477 42.125 18.7403Z" fill="var(--fill-0, #FF0000)"/>
<path d="M32.6632 18.3821C32.1997 16.6888 31.3747 11.8775 31.383 10.9162L31.391 9.97935L31.7148 10.468C32.053 10.9787 33.3515 16.8273 33.4457 18.2643C33.5222 19.434 32.9737 19.5166 32.6632 18.3821Z" fill="var(--fill-0, #FF0000)"/>
<path d="M16.4968 19.2814C13.4048 15.7347 10.875 12.6655 10.875 12.4607C10.875 12.2138 11.1068 12.295 11.5625 12.7013C12.9215 13.9126 22.1502 23.9795 22.408 24.5315L22.6713 25.0962L22.395 25.413L22.1187 25.7299L16.4968 19.2814Z" fill="var(--fill-0, #FF0000)"/>
<path d="M53.375 25.4948C53.375 25.1056 57.5147 20.5291 62.43 15.4844C66.9742 10.8204 65.7295 13.112 60.58 18.8903C54.9505 25.2074 53.375 26.6516 53.375 25.4948Z" fill="var(--fill-0, #FF0000)"/>
<path d="M50.125 22.6426C50.125 22.2988 52.1895 18.6829 53.7943 16.2165C54.49 15.1469 55.0485 14.9467 54.595 15.9297C54.4313 16.2844 53.7908 17.5428 53.1718 18.7257C51.3343 22.2371 50.125 23.7917 50.125 22.6426Z" fill="var(--fill-0, #FF0000)"/>
<path d="M25.1332 22.8895C24.8515 22.6899 20.875 15.9974 20.875 15.723C20.875 15.6395 20.988 15.5713 21.1263 15.5713C21.4015 15.5713 25.036 21.0568 25.4492 22.0963C25.729 22.8003 25.5702 23.1992 25.1332 22.8895Z" fill="var(--fill-0, #FF0000)"/>
<path d="M18.9865 37.9214C20.4348 29.954 26.8452 23.137 34.5 21.4236C38.1315 20.6109 43.263 21.4064 46.6665 23.3099C52.6953 26.6817 56.8723 33.8872 56.9708 41.085L57 43.2271L56.5893 43.3223L56.1785 43.4178L55.9977 41.3236C55.15 31.5036 48.9047 24.0836 40.3532 22.7358C34.4185 21.8007 28.4707 24.395 24.1497 29.8043C21.6663 32.9134 20.5758 35.8613 19.709 41.8102C19.5665 42.787 19.3805 43.2441 19.125 43.2441H18.75L18.6762 41.639C18.6355 40.7564 18.7753 39.0834 18.9865 37.9214Z" fill="var(--fill-0, #FF0000)"/>
<path d="M19.8222 28.7624C19.3255 28.7624 13.3732 24.1229 13.52 23.8502C13.689 23.5367 14.0993 23.777 17.4343 26.142C19.8485 27.854 20.6762 28.7624 19.8222 28.7624Z" fill="var(--fill-0, #FF0000)"/>
<path d="M55.625 29.0472C55.625 28.7266 58.4335 26.5784 60.75 25.1271C61.575 24.6101 62.3345 24.1842 62.4375 24.1808C62.912 24.1642 62.5243 24.6806 61.437 25.5137C56.7255 29.1223 55.625 29.7913 55.625 29.0472Z" fill="var(--fill-0, #FF0000)"/>
<path d="M35 25.0256L35.375 24.7477C35.5812 24.5949 36.1437 24.483 36.625 24.4994L37.5 24.5289L36.75 24.7477C36.3375 24.8682 35.775 24.98 35.5 24.9961L35 25.0256Z" fill="var(--fill-0, #FF0000)"/>
<path d="M24.8255 31.2897C26.7118 28.5729 28.9375 26.7336 31.7412 25.5753C33.5755 24.8174 33.9965 24.9318 32.3065 25.729C28.5307 27.5101 24.6835 31.598 22.7845 35.847C22.5585 36.3525 22.1015 37.9656 21.7687 39.4315L21.1638 42.097L21.1472 41.0933C21.1047 38.4838 22.6025 34.4917 24.8255 31.2897Z" fill="var(--fill-0, #FF0000)"/>
<path d="M17.8555 32.7132C17.2162 32.8543 3.625 25.9281 3.625 25.4609C3.625 25.1406 4.39276 25.4133 8.53976 27.2064C16.67 30.7222 19.4445 32.3622 17.8555 32.7132Z" fill="var(--fill-0, #FF0000)"/>
<path d="M58.3377 32.3691C59.5502 31.6499 64.0723 29.6144 68 28.0203C75.1923 25.1007 73.109 26.6229 63.75 31.1257C61.1375 32.3826 58.6908 33.4766 58.3125 33.5569L57.625 33.7025V33.2471C57.625 32.9968 57.9457 32.6017 58.3377 32.3691Z" fill="var(--fill-0, #FF0000)"/>
<path d="M25.1393 34.1791C25.924 32.4147 28.059 30.1842 30.1367 28.958C31.121 28.3773 31.971 27.9021 32.0258 27.9021C32.3655 27.9021 31.9013 28.2876 30.1875 29.4283C28.1292 30.7985 26.9495 32.0622 25.6367 34.3027C24.6628 35.9651 24.3765 35.894 25.1393 34.1791Z" fill="var(--fill-0, #FF0000)"/>
<path d="M9.5625 35.5834C9.047 35.4096 8.625 35.1587 8.625 35.0259C8.625 34.6322 9.564 34.7415 13.0638 35.5421C16.1568 36.2499 17.461 36.7887 17.0955 37.2079C16.9405 37.3857 11.3 36.1693 9.5625 35.5834Z" fill="var(--fill-0, #FF0000)"/>
<path d="M58.625 37.142L61.8125 36.417C65.1817 35.6508 66.875 35.4782 66.875 35.9006C66.875 36.2008 66.5017 36.3164 62.5432 37.2412C59.0875 38.0485 58.625 38.0837 58.625 37.5403V37.142Z" fill="var(--fill-0, #FF0000)"/>
<path d="M22.975 40.7303C22.7793 40.5057 23.3775 37.84 23.7838 37.1254C24.302 36.2146 24.5007 36.5412 24.0447 37.5538C23.8427 38.0023 23.5457 38.9305 23.3847 39.6168C23.2237 40.303 23.0395 40.804 22.975 40.7303Z" fill="var(--fill-0, #FF0000)"/>
<path d="M0.875 41.861C1.35625 41.7555 2.25625 41.6264 2.875 41.5745C3.49375 41.5226 6.7845 41.4578 10.1875 41.4303L16.375 41.3801V41.7727C16.375 42.0035 15.989 42.2387 15.4375 42.343C14.1265 42.5917 2.49275 42.5312 1.125 42.2688L0 42.0528L0.875 41.861Z" fill="var(--fill-0, #FF0000)"/>
<path d="M59.651 42.5518C59.4593 42.4124 59.3713 42.0916 59.4557 41.8392L59.6093 41.3801H61.8163C64.9813 41.3801 74.431 41.9401 74.875 42.1541C75.692 42.5475 72.725 42.772 66.5 42.7884C62.925 42.7976 59.843 42.6912 59.651 42.5518Z" fill="var(--fill-0, #FF0000)"/>
<path d="M35.208 47.7434C36.4008 46.4865 37.8737 45.2526 38.75 44.7765C40.4482 43.8537 42.2165 43.704 43.3653 44.3854C44.0825 44.8106 45.125 46.1128 45.125 46.5831C45.125 46.7208 44.5022 46.7498 43.7412 46.6471L42.3578 46.4604L41.7412 47.1249C41.4022 47.4899 41.125 48.0304 41.125 48.3255C41.125 49.1242 42.1982 50.2059 43.2057 50.4226C44.4543 50.6913 45.57 50.1861 47.7362 48.3714C48.7692 47.506 50.1278 46.5972 50.7548 46.3523C52.2248 45.7776 53.8458 46.036 54.7403 46.9866C55.5685 47.867 55.3792 48.3227 54.3675 47.8848L53.6122 47.5576L53.1812 47.8676C52.4847 48.3685 52.5235 49.2762 53.27 49.9501L53.9425 50.5566H55.147C56.6218 50.5566 57.2553 50.2543 59.5233 48.4689C61.3358 47.042 62.7047 46.5734 63.985 46.9419C64.796 47.1756 64.815 47.8587 64.0168 48.0887C63.1683 48.333 62.9415 49.3266 63.5698 50.047L64.0667 50.6173L65.721 50.7696C68.277 51.0048 67.8015 51.7036 65.0852 51.7036H63.5865L62.8557 50.8654C62.023 49.9102 61.9555 49.3995 62.5287 48.3958C62.7507 48.0069 62.8708 47.6889 62.795 47.6889C62.3233 47.6889 61.0758 48.4574 59.9943 49.4147C57.5283 51.5969 55.0377 52.2686 53.012 51.2979C51.655 50.6475 51.1535 48.762 52.0388 47.6399L52.4525 47.1154H51.93C51.025 47.1154 50.0748 47.6723 48.26 49.2667C46.2365 51.0443 45.015 51.7036 43.7455 51.7036C42.6988 51.7036 41.4305 51.038 40.818 50.1671C40.2107 49.3037 40.2577 47.6505 40.9167 46.6892L41.4587 45.8992L40.8542 46.11C39.7705 46.4877 38.7613 47.3402 37.9985 48.5225C37.1573 49.8265 36.5797 50.1253 37.2542 48.9077C38.4027 46.8344 40.0535 45.6844 41.8915 45.6773L43 45.6727L42.625 45.3948C42.0218 44.9477 40.333 45.0773 39.2217 45.6563C38.6562 45.9508 37.2282 47.177 36.0485 48.3809C32.9582 51.5347 31.27 52.2602 29.2615 51.2976C27.5728 50.488 27.134 48.2128 28.4425 47.05L29 46.5545H28.375C27.4435 46.5545 25.9202 47.4698 24.375 48.9584C22.5305 50.7349 20.7888 51.7036 19.4385 51.7036C17.3175 51.7036 16.207 50.3469 16.815 48.4987L17.0815 47.6889H16.6353C16.39 47.6889 15.3028 48.3534 14.2195 49.1658C11.664 51.0819 10.928 51.4169 9.27274 51.4169C7.42324 51.4169 7.2895 50.9575 9.065 50.7031C10.656 50.4751 11.326 50.1367 13.443 48.4927C15.934 46.5585 17.8213 46.0756 18.9098 47.0942L19.5 47.6462L19 47.8317C17.641 48.3356 17.1712 49.4668 18.024 50.182C19.1992 51.1676 21.3935 50.3624 23.8742 48.0347C26.3865 45.6778 28.6108 45.0619 30.3125 46.2519C31.399 47.0119 31.337 47.4021 30.1298 47.4021H29.1345L28.9825 48.0964C28.726 49.2693 28.964 49.8001 29.9367 50.2248L30.8708 50.6326L32.0182 50.2638L33.166 49.8953L35.208 47.7434Z" fill="var(--fill-0, #FF0000)"/>
<path d="M24.875 49.9784C24.875 49.7817 25.2768 49.1861 25.7678 48.6547C26.2588 48.1236 26.8437 47.6889 27.0677 47.6889C27.3125 47.6889 27.3802 47.7873 27.2375 47.9352C25.5082 49.7292 24.875 50.277 24.875 49.9784Z" fill="var(--fill-0, #FF0000)"/>
<path d="M38.6768 49.051C38.8745 48.6963 39.1237 48.2361 39.2305 48.0281C39.3375 47.8205 39.4822 47.7164 39.5522 47.7967C39.689 47.9536 38.6818 49.6963 38.4543 49.6963C38.379 49.6963 38.4793 49.4058 38.6768 49.051Z" fill="var(--fill-0, #FF0000)"/>
<path d="M49.5625 49.7057C48.5612 50.5907 48.7198 49.9119 49.7588 48.8658C50.2448 48.3763 50.8353 47.98 51.0713 47.9851L51.5 47.9949L50.875 48.5463C50.5312 48.8497 49.9408 49.3717 49.5625 49.7057Z" fill="var(--fill-0, #FF0000)"/>
<path d="M14.25 50.3062L15.0665 49.4276C15.7735 48.6671 16.375 48.3115 16.375 48.6544C16.375 48.7124 15.897 49.1078 15.3125 49.5328L14.25 50.3062Z" fill="var(--fill-0, #FF0000)"/>
<path d="M60.25 50.0848L60.856 49.3172C61.1895 48.8947 61.555 48.5492 61.6685 48.5492C62.0467 48.5492 61.8825 48.791 61.0625 49.4408L60.25 50.0848Z" fill="var(--fill-0, #FF0000)"/>
<path d="M16.8365 56.7624C17.3712 56.6641 18.4145 56.207 19.1545 55.7458C19.8945 55.285 20.5867 54.8968 20.6927 54.883C20.799 54.8692 21.3333 55.1975 21.88 55.6128C22.5063 56.0882 23.4065 56.4413 24.3123 56.5669L25.75 56.7662L25 57.1278C23.999 57.6104 22.0058 57.3701 21.1715 56.6664L20.5 56.1003L19.25 56.7659C18.495 57.1679 17.5238 57.4329 16.7978 57.4352C15.3985 57.4395 15.4225 57.0217 16.8365 56.7624Z" fill="var(--fill-0, #FF0000)"/>
<path d="M30.1953 56.5993C30.649 56.4275 31.4095 55.9718 31.885 55.5867C32.8465 54.8081 33.262 54.7032 33.516 55.1746C33.8195 55.7378 35.7225 56.5657 36.75 56.5815L37.75 56.597L37.2647 57.0179C36.5752 57.6158 34.963 57.539 33.7198 56.8488L32.6567 56.2583L31.9532 56.6707C30.9575 57.2545 29.7005 57.5241 29.5215 57.192C29.4385 57.0377 29.7415 56.771 30.1953 56.5993Z" fill="var(--fill-0, #FF0000)"/>
<path d="M39.5 56.7693C39.775 56.6503 40.6188 56.1878 41.375 55.7416C43.1105 54.7178 43.168 54.7141 44.2548 55.56C44.7508 55.9463 45.684 56.3435 46.3282 56.443C48.0107 56.7025 48.084 56.7581 47.25 57.143C46.2967 57.5826 44.4473 57.3165 43.6302 56.6222L43.0105 56.0954L41.936 56.6405C41.3028 56.962 40.4793 57.1447 39.9308 57.0859L39 56.9858L39.5 56.7693Z" fill="var(--fill-0, #FF0000)"/>
<path d="M50.1875 56.5749C50.4967 56.5729 51.3125 56.2606 52 55.8806C53.5527 55.0226 53.4475 55.0292 54.625 55.7183C55.2168 56.0647 56.0985 56.2919 56.8503 56.2919C57.5353 56.2919 58.1655 56.4217 58.251 56.5806C58.698 57.4102 55.092 57.5691 54.025 56.767L53.3345 56.2483L52.3498 56.7002C51.247 57.2063 49.625 57.3047 49.625 56.8654C49.625 56.7077 49.8783 56.5769 50.1875 56.5749Z" fill="var(--fill-0, #FF0000)"/>
<path d="M38.8115 62.4691C39.3277 62.3684 40.7022 61.7926 41.8662 61.1889L43.9825 60.0912L45.4912 60.975L47 61.8588L48.5625 61.9764C50.3473 62.1106 50.5645 62.443 49.1525 62.8788C48.288 63.1461 42.375 63.2181 42.375 62.9615C42.375 62.6196 44.124 62.1126 44.9805 62.2064L46 62.3176L44.963 61.8714L43.9258 61.4252L42.338 62.1757C40.577 63.0076 38.2865 63.4191 38.0333 62.9488C37.9383 62.773 38.2562 62.5769 38.8115 62.4691Z" fill="var(--fill-0, #FF0000)"/>
<path d="M26.625 62.4197C27.3813 62.1946 28.5063 61.6383 29.125 61.1835C30.5042 60.1695 30.4465 60.1786 31.0052 60.8867C31.5317 61.5543 33.9355 62.4378 34.6455 62.2247C35.4213 61.9919 35.4693 62.5732 34.7025 62.913C33.792 63.3162 32.0095 63.0351 30.956 62.3222L30.125 61.7596L29.294 62.3222C28.353 62.9589 26.3788 63.3526 25.7015 63.0386L25.25 62.8292L26.625 62.4197Z" fill="var(--fill-0, #FF0000)"/>
</g>
</g>
</svg>
